<mxfile host="app.diagrams.net" modified="2021-10-30T03:17:03.026Z" agent="5.0 (Windows)" etag="oY9De-VlOB_8gJ0NBn8o" version="15.6.2" type="github" pages="2">
  <diagram id="kIMMTGyzGg7FBvF_XWBy" name="Page-1">
    <mxGraphModel dx="782" dy="420" grid="1" gridSize="10" guides="1" tooltips="1" connect="1" arrows="1" fold="1" page="1" pageScale="1" pageWidth="850" pageHeight="1100" math="0" shadow="0">
      <root>
        <mxCell id="0" />
        <mxCell id="1" parent="0" />
        <mxCell id="2wqTJiajr15-v-TX5q5e-1" value="Bicicleta" style="swimlane;fontStyle=4;align=center;verticalAlign=top;childLayout=stackLayout;horizontal=1;startSize=30;horizontalStack=0;resizeParent=1;resizeParentMax=0;resizeLast=0;collapsible=0;marginBottom=0;html=1;fillColor=#1ba1e2;strokeColor=#006EAF;fontColor=#ffffff;" vertex="1" parent="1">
          <mxGeometry x="40" y="420" width="260" height="240" as="geometry" />
        </mxCell>
        <mxCell id="2wqTJiajr15-v-TX5q5e-2" value="&lt;div&gt;Atributos&lt;/div&gt;&lt;div&gt;-boolean rin;&lt;/div&gt;&lt;div&gt;-&lt;span style=&quot;white-space: pre&quot;&gt;&lt;/span&gt;int manubrio;&lt;/div&gt;&lt;div&gt;-boolean cadena;&lt;/div&gt;&lt;div&gt;-boolean estrella;&lt;/div&gt;" style="html=1;strokeColor=none;fillColor=none;align=left;verticalAlign=middle;spacingLeft=4;spacingRight=4;rotatable=0;points=[[0,0.5],[1,0.5]];resizeWidth=1;" vertex="1" parent="2wqTJiajr15-v-TX5q5e-1">
          <mxGeometry y="30" width="260" height="120" as="geometry" />
        </mxCell>
        <mxCell id="2wqTJiajr15-v-TX5q5e-3" value="" style="line;strokeWidth=1;fillColor=none;align=left;verticalAlign=middle;spacingTop=-1;spacingLeft=3;spacingRight=3;rotatable=0;labelPosition=right;points=[];portConstraint=eastwest;" vertex="1" parent="2wqTJiajr15-v-TX5q5e-1">
          <mxGeometry y="150" width="260" height="8" as="geometry" />
        </mxCell>
        <mxCell id="2wqTJiajr15-v-TX5q5e-4" value="&lt;div&gt;Metodos&lt;/div&gt;&lt;div&gt;+VehiculoTerrestre(int llantas, String color, &lt;br&gt;boolean frenos, boolean espejos, String marca&lt;br&gt;String modelo, boolean pedal);&lt;/div&gt;&lt;div&gt;+Desplazamiento();&lt;br&gt;&lt;/div&gt;" style="html=1;strokeColor=none;fillColor=none;align=center;verticalAlign=middle;spacingLeft=4;spacingRight=4;rotatable=0;points=[[0,0.5],[1,0.5]];resizeWidth=1;" vertex="1" parent="2wqTJiajr15-v-TX5q5e-1">
          <mxGeometry y="158" width="260" height="82" as="geometry" />
        </mxCell>
        <mxCell id="2wqTJiajr15-v-TX5q5e-7" value="VechiculosTerrestres" style="swimlane;fontStyle=4;align=center;verticalAlign=top;childLayout=stackLayout;horizontal=1;startSize=30;horizontalStack=0;resizeParent=1;resizeParentMax=0;resizeLast=0;collapsible=0;marginBottom=0;html=1;fillColor=#f8cecc;strokeColor=#b85450;" vertex="1" parent="1">
          <mxGeometry x="290" y="40" width="260" height="240" as="geometry" />
        </mxCell>
        <mxCell id="2wqTJiajr15-v-TX5q5e-8" value="&lt;div&gt;Atributos&lt;/div&gt;&lt;div&gt;-int llantas;&lt;/div&gt;&lt;div&gt;-&lt;span style=&quot;white-space: pre&quot;&gt;&lt;/span&gt;String color;&lt;/div&gt;&lt;div&gt;-boolean frenos;&lt;/div&gt;&lt;div&gt;-boolean espejos;&lt;/div&gt;&lt;div&gt;-String marca;&lt;/div&gt;&lt;div&gt;-String modelo;&lt;/div&gt;&lt;div&gt;-boolean pedal;&lt;br&gt;&lt;/div&gt;" style="html=1;strokeColor=none;fillColor=none;align=left;verticalAlign=middle;spacingLeft=4;spacingRight=4;rotatable=0;points=[[0,0.5],[1,0.5]];resizeWidth=1;" vertex="1" parent="2wqTJiajr15-v-TX5q5e-7">
          <mxGeometry y="30" width="260" height="120" as="geometry" />
        </mxCell>
        <mxCell id="2wqTJiajr15-v-TX5q5e-9" value="" style="line;strokeWidth=1;fillColor=none;align=left;verticalAlign=middle;spacingTop=-1;spacingLeft=3;spacingRight=3;rotatable=0;labelPosition=right;points=[];portConstraint=eastwest;" vertex="1" parent="2wqTJiajr15-v-TX5q5e-7">
          <mxGeometry y="150" width="260" height="8" as="geometry" />
        </mxCell>
        <mxCell id="2wqTJiajr15-v-TX5q5e-10" value="&lt;div&gt;Metodos&lt;/div&gt;&lt;div&gt;+VehiculoTerrestre(int llantas, String color, &lt;br&gt;boolean frenos, boolean espejos, String marca&lt;br&gt;String modelo, boolean pedal);&lt;/div&gt;&lt;div&gt;+Desplazamiento();&lt;br&gt;&lt;/div&gt;" style="html=1;strokeColor=none;fillColor=none;align=center;verticalAlign=middle;spacingLeft=4;spacingRight=4;rotatable=0;points=[[0,0.5],[1,0.5]];resizeWidth=1;" vertex="1" parent="2wqTJiajr15-v-TX5q5e-7">
          <mxGeometry y="158" width="260" height="82" as="geometry" />
        </mxCell>
        <mxCell id="2wqTJiajr15-v-TX5q5e-11" value="Tren" style="swimlane;fontStyle=4;align=center;verticalAlign=top;childLayout=stackLayout;horizontal=1;startSize=30;horizontalStack=0;resizeParent=1;resizeParentMax=0;resizeLast=0;collapsible=0;marginBottom=0;html=1;fillColor=#1ba1e2;strokeColor=#006EAF;fontColor=#ffffff;" vertex="1" parent="1">
          <mxGeometry x="390" y="430" width="410" height="240" as="geometry" />
        </mxCell>
        <mxCell id="2wqTJiajr15-v-TX5q5e-12" value="&lt;div&gt;Atributos&lt;/div&gt;&lt;div&gt;-int vagones;&lt;/div&gt;&lt;div&gt;-&lt;span style=&quot;white-space: pre&quot;&gt;&lt;/span&gt;boolean locomotora;&lt;/div&gt;&lt;div&gt;-int faroCentral;&lt;/div&gt;&lt;div&gt;-boolean engancheAutomatico;&lt;/div&gt;&lt;div&gt;-boolean reflector;&lt;/div&gt;" style="html=1;strokeColor=none;fillColor=none;align=left;verticalAlign=middle;spacingLeft=4;spacingRight=4;rotatable=0;points=[[0,0.5],[1,0.5]];resizeWidth=1;" vertex="1" parent="2wqTJiajr15-v-TX5q5e-11">
          <mxGeometry y="30" width="410" height="120" as="geometry" />
        </mxCell>
        <mxCell id="2wqTJiajr15-v-TX5q5e-13" value="" style="line;strokeWidth=1;fillColor=none;align=left;verticalAlign=middle;spacingTop=-1;spacingLeft=3;spacingRight=3;rotatable=0;labelPosition=right;points=[];portConstraint=eastwest;" vertex="1" parent="2wqTJiajr15-v-TX5q5e-11">
          <mxGeometry y="150" width="410" height="8" as="geometry" />
        </mxCell>
        <mxCell id="2wqTJiajr15-v-TX5q5e-14" value="&lt;div&gt;Metodos&lt;/div&gt;&lt;div&gt;+VehiculoTerrestre(int llantas, String color, &lt;br&gt;boolean frenos, boolean espejos, String marca&lt;br&gt;String modelo, boolean pedal, int vagones, boolean locomotora&lt;br&gt;int faroCentral, boolean engancheAutomatico, boolean reflector);&lt;/div&gt;&lt;div&gt;+Desplazamiento();&lt;br&gt;&lt;/div&gt;" style="html=1;strokeColor=none;fillColor=none;align=center;verticalAlign=middle;spacingLeft=4;spacingRight=4;rotatable=0;points=[[0,0.5],[1,0.5]];resizeWidth=1;" vertex="1" parent="2wqTJiajr15-v-TX5q5e-11">
          <mxGeometry y="158" width="410" height="82" as="geometry" />
        </mxCell>
        <mxCell id="2wqTJiajr15-v-TX5q5e-15" value="Tren" style="swimlane;fontStyle=4;align=center;verticalAlign=top;childLayout=stackLayout;horizontal=1;startSize=30;horizontalStack=0;resizeParent=1;resizeParentMax=0;resizeLast=0;collapsible=0;marginBottom=0;html=1;fillColor=#008a00;strokeColor=#005700;fontColor=#ffffff;" vertex="1" parent="1">
          <mxGeometry x="440" y="800" width="400" height="290" as="geometry" />
        </mxCell>
        <mxCell id="2wqTJiajr15-v-TX5q5e-16" value="&lt;div&gt;Atributos&lt;/div&gt;&lt;div&gt;-int numeroMaxPasajeros;&lt;/div&gt;&lt;div&gt;-int pasajerosPorVagon;&lt;/div&gt;" style="html=1;strokeColor=none;fillColor=none;align=left;verticalAlign=middle;spacingLeft=4;spacingRight=4;rotatable=0;points=[[0,0.5],[1,0.5]];resizeWidth=1;" vertex="1" parent="2wqTJiajr15-v-TX5q5e-15">
          <mxGeometry y="30" width="400" height="120" as="geometry" />
        </mxCell>
        <mxCell id="2wqTJiajr15-v-TX5q5e-17" value="" style="line;strokeWidth=1;fillColor=none;align=left;verticalAlign=middle;spacingTop=-1;spacingLeft=3;spacingRight=3;rotatable=0;labelPosition=right;points=[];portConstraint=eastwest;" vertex="1" parent="2wqTJiajr15-v-TX5q5e-15">
          <mxGeometry y="150" width="400" height="8" as="geometry" />
        </mxCell>
        <mxCell id="2wqTJiajr15-v-TX5q5e-18" value="&lt;div&gt;Metodos&lt;/div&gt;&lt;div&gt;+VehiculoTerrestre(int llantas, String color, &lt;br&gt;boolean frenos, boolean espejos, String marca&lt;br&gt;String modelo, boolean pedal, int vagones, boolean locomotora&lt;br&gt;int faroCentral, boolean engancheAutomatico, boolean reflector,&lt;br&gt;int numeroMaxPasajeros, int pasajerosProVagon);&lt;/div&gt;&lt;div&gt;+Arrancar();&lt;/div&gt;&lt;div&gt;+String toString();&lt;/div&gt;&lt;div&gt;+Desplazamiento();&lt;br&gt;&lt;/div&gt;" style="html=1;strokeColor=none;fillColor=none;align=center;verticalAlign=middle;spacingLeft=4;spacingRight=4;rotatable=0;points=[[0,0.5],[1,0.5]];resizeWidth=1;" vertex="1" parent="2wqTJiajr15-v-TX5q5e-15">
          <mxGeometry y="158" width="400" height="132" as="geometry" />
        </mxCell>
        <mxCell id="2wqTJiajr15-v-TX5q5e-20" value="" style="endArrow=classic;html=1;rounded=0;exitX=0.5;exitY=0;exitDx=0;exitDy=0;strokeColor=#006EAF;endFill=0;strokeWidth=1;startSize=35;fillColor=#1ba1e2;" edge="1" parent="1" source="2wqTJiajr15-v-TX5q5e-11">
          <mxGeometry width="50" height="50" relative="1" as="geometry">
            <mxPoint x="350" y="320" as="sourcePoint" />
            <mxPoint x="450" y="280" as="targetPoint" />
            <Array as="points">
              <mxPoint x="450" y="400" />
            </Array>
          </mxGeometry>
        </mxCell>
        <mxCell id="2wqTJiajr15-v-TX5q5e-21" value="" style="endArrow=classic;html=1;rounded=0;exitX=0.5;exitY=0;exitDx=0;exitDy=0;strokeColor=#006EAF;endFill=0;strokeWidth=1;startSize=35;fillColor=#1ba1e2;" edge="1" parent="1" source="2wqTJiajr15-v-TX5q5e-1">
          <mxGeometry width="50" height="50" relative="1" as="geometry">
            <mxPoint x="635" y="440" as="sourcePoint" />
            <mxPoint x="370" y="280" as="targetPoint" />
            <Array as="points">
              <mxPoint x="340" y="400" />
            </Array>
          </mxGeometry>
        </mxCell>
        <mxCell id="2wqTJiajr15-v-TX5q5e-22" value="" style="endArrow=classic;html=1;rounded=0;exitX=0.5;exitY=0;exitDx=0;exitDy=0;strokeColor=#2D7600;endFill=0;strokeWidth=1;startSize=35;fillColor=#60a917;" edge="1" parent="1" source="2wqTJiajr15-v-TX5q5e-15">
          <mxGeometry width="50" height="50" relative="1" as="geometry">
            <mxPoint x="485" y="740" as="sourcePoint" />
            <mxPoint x="560" y="670" as="targetPoint" />
            <Array as="points">
              <mxPoint x="460" y="780" />
            </Array>
          </mxGeometry>
        </mxCell>
      </root>
    </mxGraphModel>
  </diagram>
  <diagram id="1S35UvFpdBLYkdutkVYu" name="Page-2">
    <mxGraphModel dx="782" dy="420" grid="1" gridSize="10" guides="1" tooltips="1" connect="1" arrows="1" fold="1" page="1" pageScale="1" pageWidth="850" pageHeight="1100" math="0" shadow="0">
      <root>
        <mxCell id="15-THOqFj9estvNL2UCk-0" />
        <mxCell id="15-THOqFj9estvNL2UCk-1" parent="15-THOqFj9estvNL2UCk-0" />
        <mxCell id="15-THOqFj9estvNL2UCk-2" value="Pruebas" style="swimlane;fontStyle=4;align=center;verticalAlign=top;childLayout=stackLayout;horizontal=1;startSize=30;horizontalStack=0;resizeParent=1;resizeParentMax=0;resizeLast=0;collapsible=0;marginBottom=0;html=1;" vertex="1" parent="15-THOqFj9estvNL2UCk-1">
          <mxGeometry x="330" y="150" width="280" height="88" as="geometry" />
        </mxCell>
        <mxCell id="15-THOqFj9estvNL2UCk-3" value="Atributos" style="html=1;strokeColor=none;fillColor=none;align=left;verticalAlign=middle;spacingLeft=4;spacingRight=4;rotatable=0;points=[[0,0.5],[1,0.5]];resizeWidth=1;" vertex="1" parent="15-THOqFj9estvNL2UCk-2">
          <mxGeometry y="30" width="280" height="30" as="geometry" />
        </mxCell>
        <mxCell id="15-THOqFj9estvNL2UCk-4" value="" style="line;strokeWidth=1;fillColor=none;align=left;verticalAlign=middle;spacingTop=-1;spacingLeft=3;spacingRight=3;rotatable=0;labelPosition=right;points=[];portConstraint=eastwest;" vertex="1" parent="15-THOqFj9estvNL2UCk-2">
          <mxGeometry y="60" width="280" height="8" as="geometry" />
        </mxCell>
        <mxCell id="15-THOqFj9estvNL2UCk-5" value="&lt;div&gt;Metodos&lt;/div&gt;&lt;div&gt;&lt;br&gt;&lt;/div&gt;" style="html=1;strokeColor=none;fillColor=none;align=center;verticalAlign=middle;spacingLeft=4;spacingRight=4;rotatable=0;points=[[0,0.5],[1,0.5]];resizeWidth=1;" vertex="1" parent="15-THOqFj9estvNL2UCk-2">
          <mxGeometry y="68" width="280" height="20" as="geometry" />
        </mxCell>
      </root>
    </mxGraphModel>
  </diagram>
</mxfile>
